# File created by Blade
# Date/Time:  Thu Sep 25 17:33:50 2014
# Frame Rate: 120.000 fps
#------------------------------------------------------
:FULLY-SPECIFIED
:DEGREES
1794
root -7.035343 34.720736 -1.824566 28.645026 12.115634 42.639361
Spine -2.993590 -7.942395 -23.760017
Head -20.836624 -12.844102 -6.139858
LeftShoulder -0.191834 9.705940 13.865474
LeftArm 66.629986 33.450828 -45.726768
LeftForeArm 32.864468 -0.000000 107.013643
LeftHand -26.396893 -0.000000 26.045825
LeftHandThumb1 -26.253704 0.000000 33.147579
RightShoulder -15.262217 11.894330 -27.478923
RightArm 7.147403 -32.587432 80.714558
RightForeArm -23.303240 -0.000000 124.592686
RightHand -0.091894 -0.000000 -25.487171
RightHandThumb1 -24.326973 -0.000000 -32.862282
LeftUpLeg -50.318775 18.146548 40.080141
LeftLeg 128.625898 -0.000000 -0.000000
LeftFoot 22.114026 0.456319 -8.317023
LeftToeBase 1.462760 -0.000000 -0.000000
RightUpLeg -25.399136 -17.862697 -33.827785
RightLeg 23.534898 -0.000000 -0.000000
RightFoot -10.914061 -13.068614 -6.444771
RightToeBase -1.240949 -0.000000 0.000000
1795
root -7.039287 34.723333 -1.832604 28.669159 11.649097 42.405852
Spine -3.305468 -7.792356 -23.782848
Head -20.875041 -12.456714 -6.071652
LeftShoulder -0.293776 9.810338 13.885445
LeftArm 66.653254 33.431276 -45.699279
LeftForeArm 33.034124 -0.000000 107.036697
LeftHand -26.594992 -0.000000 26.292317
LeftHandThumb1 -26.253704 0.000000 33.147579
RightShoulder -15.267173 11.884576 -27.450823
RightArm 7.260918 -32.661047 80.639655
RightForeArm -23.225369 -0.000000 124.576824
RightHand -0.032594 -0.000000 -25.309653
RightHandThumb1 -24.326973 -0.000000 -32.862282
LeftUpLeg -49.849404 17.288395 40.403741
LeftLeg 128.645288 -0.000000 -0.000000
LeftFoot 22.300875 0.469186 -8.256186
LeftToeBase 1.207128 -0.000000 -0.000000
RightUpLeg -25.790230 -17.553064 -33.684907
RightLeg 23.404937 -0.000000 -0.000000
RightFoot -10.728434 -13.030921 -6.666262
RightToeBase -1.278515 -0.000000 0.000000
1796
root -7.042815 34.721026 -1.839933 28.668211 11.172176 42.119058
Spine -3.622118 -7.603997 -23.751365
Head -20.907887 -12.089018 -6.015699
LeftShoulder -0.350063 9.879264 13.911746
LeftArm 66.578624 33.407776 -45.769543
LeftForeArm 33.074331 -0.000000 107.074918
LeftHand -26.531525 -0.000000 26.194844
LeftHandThumb1 -26.253704 0.000000 33.147579
RightShoulder -15.246071 11.854022 -27.433778
RightArm 7.350773 -32.707810 80.566921
RightForeArm -23.225845 -0.000000 124.594370
RightHand -0.015638 -0.000000 -25.234038
RightHandThumb1 -24.326973 -0.000000 -32.862282
LeftUpLeg -49.395684 16.545817 40.715296
LeftLeg 128.629072 -0.000000 -0.000000
LeftFoot 22.663121 0.715565 -8.073536
LeftToeBase 0.647110 -0.000000 -0.000000
RightUpLeg -26.194127 -17.253621 -33.481119
RightLeg 23.279551 -0.000000 -0.000000
RightFoot -10.578511 -12.950456 -6.883592
RightToeBase -1.364379 -0.000000 0.000000
1797
root -7.045225 34.720510 -1.850604 28.679304 10.737946 41.883766
Spine -3.904683 -7.507208 -23.746947
Head -20.965580 -11.719182 -5.965825
LeftShoulder -0.397845 9.972924 13.927541
LeftArm 66.498370 33.311709 -45.845398
LeftForeArm 33.011428 -0.000000 107.111871
LeftHand -26.392944 -0.000000 26.020088
LeftHandThumb1 -26.253704 0.000000 33.147579
RightShoulder -15.137037 11.864256 -27.419744
RightArm 7.378423 -32.727840 80.542630
RightForeArm -23.362481 0.000000 124.601512
RightHand -0.038018 -0.000000 -25.389666
RightHandThumb1 -24.326973 -0.000000 -32.862282
LeftUpLeg -49.015405 15.729480 40.966404
LeftLeg 128.678310 -0.000000 -0.000000
LeftFoot 22.773762 0.948356 -7.901539
LeftToeBase 0.115366 -0.000000 -0.000000
RightUpLeg -26.547550 -16.960225 -33.333969
RightLeg 23.137637 -0.000000 -0.000000
RightFoot -10.423546 -12.896203 -7.073730
RightToeBase -1.421935 -0.000000 0.000000
1798
root -7.050691 34.718437 -1.859542 28.685564 10.283544 41.636386
Spine -4.192551 -7.429144 -23.768006
Head -21.024398 -11.318155 -5.846556
LeftShoulder -0.479404 10.137550 13.968664
LeftArm 66.528781 33.202259 -45.835397
LeftForeArm 33.021652 -0.000000 107.132846
LeftHand -26.464731 -0.000000 26.126513
LeftHandThumb1 -26.253704 0.000000 33.147579
RightShoulder -15.016057 11.839803 -27.372752
RightArm 7.423358 -32.687819 80.563154
RightForeArm -23.443097 0.000000 124.583604
RightHand 0.013163 -0.000000 -25.156829
RightHandThumb1 -24.326973 -0.000000 -32.862282
LeftUpLeg -48.604632 14.907988 41.218611
LeftLeg 128.747242 -0.000000 -0.000000
LeftFoot 22.662802 1.107108 -7.975120
LeftToeBase 0.016739 -0.000000 -0.000000
RightUpLeg -26.894376 -16.551683 -33.202160
RightLeg 22.982230 -0.000000 -0.000000
RightFoot -10.267490 -12.952621 -7.227896
RightToeBase -1.448312 -0.000000 0.000000
1799
root -7.054299 34.714955 -1.868408 28.706456 9.853275 41.381231
Spine -4.478545 -7.252500 -23.765169
Head -21.108240 -11.069366 -5.725028
LeftShoulder -0.450730 10.180101 14.047958
LeftArm 66.484248 33.193856 -45.899221
LeftForeArm 33.037912 -0.000000 107.147906
LeftHand -26.490564 -0.000000 26.139972
LeftHandThumb1 -26.253704 0.000000 33.147579
RightShoulder -15.022006 11.739042 -27.334980
RightArm 7.535850 -32.698680 80.446995
RightForeArm -23.365207 -0.000000 124.593113
RightHand 0.097115 -0.000000 -25.212722
RightHandThumb1 -24.326973 -0.000000 -32.862282
LeftUpLeg -48.232930 14.138665 41.438600
LeftLeg 128.848094 -0.000000 -0.000000
LeftFoot 22.446163 1.239535 -7.651968
LeftToeBase -0.219744 -0.000000 0.000000
RightUpLeg -27.254519 -16.327856 -33.012971
RightLeg 22.830903 -0.000000 -0.000000
RightFoot -10.149608 -12.844950 -7.421835
RightToeBase -1.460687 -0.000000 0.000000
1800
root -7.057936 34.715788 -1.873920 28.704366 9.425971 41.177121
Spine -4.720728 -7.168397 -23.811069
Head -21.165810 -10.752525 -5.651532
LeftShoulder -0.472720 10.220850 14.076662
LeftArm 66.362375 33.186042 -45.974141
LeftForeArm 33.088868 -0.000000 107.179924
LeftHand -26.494735 -0.000000 26.159346
LeftHandThumb1 -26.253704 0.000000 33.147579
RightShoulder -14.955357 11.627896 -27.315655
RightArm 7.622044 -32.698663 80.487627
RightForeArm -23.538599 -0.000000 124.542861
RightHand -0.043741 0.000000 -25.269581
RightHandThumb1 -24.326973 -0.000000 -32.862282
LeftUpLeg -47.860008 13.318130 41.584525
LeftLeg 128.941080 -0.000000 -0.000000
LeftFoot 22.169693 1.330300 -7.415320
LeftToeBase -0.218436 -0.000000 0.000000
RightUpLeg -27.541339 -16.079735 -32.892198
RightLeg 22.638976 -0.000000 -0.000000
RightFoot -10.005155 -12.753514 -7.574294
RightToeBase -1.570234 -0.000000 0.000000
1801
root -7.060318 34.715302 -1.878681 28.660039 8.947188 41.015289
Spine -4.888193 -7.006432 -23.991508
Head -21.262662 -10.423266 -5.427914
LeftShoulder -0.455843 10.224193 14.205305
LeftArm 66.327123 33.141246 -45.972629
LeftForeArm 33.018580 -0.000000 107.192090
LeftHand -26.626592 -0.000000 26.425470
LeftHandThumb1 -26.253704 0.000000 33.147579
RightShoulder -14.914879 11.598769 -27.273178
RightArm 7.607092 -32.713959 80.523482
RightForeArm -23.558335 -0.000000 124.524536
RightHand -0.114863 -0.000000 -25.506502
RightHandThumb1 -24.326973 -0.000000 -32.862282
LeftUpLeg -47.446856 12.518817 41.632246
LeftLeg 129.010895 -0.000000 -0.000000
LeftFoot 21.936449 1.416481 -7.172257
LeftToeBase 0.029297 -0.000000 -0.000000
RightUpLeg -27.826447 -15.833668 -32.835595
RightLeg 22.507551 -0.000000 -0.000000
RightFoot -9.913095 -12.583278 -7.721055
RightToeBase -1.623405 -0.000000 0.000000
1802
root -7.061505 34.716096 -1.883066 28.654871 8.482388 40.862395
Spine -5.098822 -6.966251 -24.140807
Head -21.382463 -10.019427 -5.282918
LeftShoulder -0.553990 10.333018 14.268520
LeftArm 66.387063 33.041222 -45.882132
LeftForeArm 32.873471 0.000000 107.211051
LeftHand -26.678198 -0.000000 26.411967
LeftHandThumb1 -26.253704 0.000000 33.147579
RightShoulder -14.803336 11.607453 -27.215518
RightArm 7.547039 -32.629311 80.649049
RightForeArm -23.538858 -0.000000 124.538506
RightHand -0.165973 -0.000000 -25.374917
RightHandThumb1 -24.326973 -0.000000 -32.862282
LeftUpLeg -47.115893 11.770216 41.625875
LeftLeg 129.056248 -0.000000 -0.000000
LeftFoot 21.908416 1.560524 -6.932746
LeftToeBase -0.204032 -0.000000 0.000000
RightUpLeg -28.107229 -15.538448 -32.817785
RightLeg 22.383911 -0.000000 -0.000000
RightFoot -9.817030 -12.451795 -8.005173
RightToeBase -1.504436 -0.000000 0.000000
1803
root -7.071123 34.708861 -1.892292 28.633288 7.991471 40.610016
Spine -5.289319 -6.549580 -24.281060
Head -21.530508 -9.911644 -5.000442
LeftShoulder -0.281824 10.226802 14.469462
LeftArm 66.330838 33.029441 -45.910359
LeftForeArm 32.772452 -0.000000 107.232859
LeftHand -26.738991 0.000000 26.360168
LeftHandThumb1 -26.253704 0.000000 33.147579
RightShoulder -15.012987 11.505766 -27.183993
RightArm 7.520054 -32.559849 80.640561
RightForeArm -23.296930 -0.000000 124.559302
RightHand -0.180535 -0.000000 -25.160640
RightHandThumb1 -24.326973 -0.000000 -32.862282
LeftUpLeg -46.752233 11.116829 41.750989
LeftLeg 129.106466 -0.000000 -0.000000
LeftFoot 21.850116 1.614275 -6.793727
LeftToeBase -0.244411 -0.000000 0.000000
RightUpLeg -28.477112 -15.234573 -32.643383
RightLeg 22.252550 -0.000000 -0.000000
RightFoot -9.729458 -12.400179 -8.120626
RightToeBase -1.531670 -0.000000 0.000000
1804
root -7.074519 34.711302 -1.896655 28.607742 7.541573 40.471171
Spine -5.465498 -6.717520 -24.418109
Head -21.642095 -9.305951 -4.890120
LeftShoulder -0.486021 10.300092 14.468092
LeftArm 66.284391 32.953454 -45.820750
LeftForeArm 32.720660 -0.000000 107.265339
LeftHand -26.851577 -0.000000 26.594662
LeftHandThumb1 -26.253704 0.000000 33.147579
RightShoulder -14.737598 11.539019 -27.089934
RightArm 7.531613 -32.485144 80.730546
RightForeArm -23.210544 -0.000000 124.534538
RightHand -0.047728 -0.000000 -24.859873
RightHandThumb1 -24.326973 -0.000000 -32.862282
LeftUpLeg -46.480182 10.404546 41.704777
LeftLeg 129.131615 -0.000000 -0.000000
LeftFoot 21.872830 1.727799 -6.816956
LeftToeBase -0.187203 -0.000000 0.000000
RightUpLeg -28.745458 -15.006688 -32.590716
RightLeg 22.113219 -0.000000 -0.000000
RightFoot -9.602838 -12.291753 -8.347774
RightToeBase -1.540476 -0.000000 0.000000
1805
root -7.078672 34.711634 -1.900153 28.574220 7.087883 40.309847
Spine -5.638959 -6.757034 -24.550531
Head -21.736917 -8.811057 -4.785349
LeftShoulder -0.617467 10.391237 14.467526
LeftArm 66.327338 32.837802 -45.680903
LeftForeArm 32.777516 0.000000 107.254150
LeftHand -26.880629 -0.000000 26.562154
LeftHandThumb1 -26.253704 0.000000 33.147579
RightShoulder -14.525364 11.620455 -27.024309
RightArm 7.365132 -32.342790 80.890322
RightForeArm -22.733027 0.000000 124.541926
RightHand 0.387839 -0.000000 -24.463567
RightHandThumb1 -24.326973 -0.000000 -32.862282
LeftUpLeg -46.202573 9.768939 41.665660
LeftLeg 129.150598 -0.000000 -0.000000
LeftFoot 21.916481 1.786846 -6.783572
LeftToeBase -0.414200 -0.000000 0.000000
RightUpLeg -29.023905 -14.738378 -32.523263
RightLeg 21.993016 -0.000000 -0.000000
RightFoot -9.473979 -12.197064 -8.590558
RightToeBase -1.599274 -0.000000 0.000000
1806
root -7.082194 34.706970 -1.911524 28.569379 6.746964 40.070429
Spine -5.780529 -6.459523 -24.550576
Head -21.882054 -8.707203 -4.668619
LeftShoulder -0.342011 10.345199 14.522675
LeftArm 66.362682 32.756182 -45.585430
LeftForeArm 32.611387 -0.000000 107.323647
LeftHand -26.725369 -0.000000 25.512553
LeftHandThumb1 -26.253704 0.000000 33.147579
RightShoulder -14.726407 11.539469 -27.034367
RightArm 7.250387 -32.236491 80.911025
RightForeArm -22.382027 -0.000000 124.600521
RightHand 0.553590 -0.000000 -24.087783
RightHandThumb1 -24.326973 -0.000000 -32.862282
LeftUpLeg -46.031660 9.148409 41.760806
LeftLeg 129.257467 -0.000000 -0.000000
LeftFoot 21.629077 1.742444 -6.794598
LeftToeBase 0.263908 -0.000000 -0.000000
RightUpLeg -29.306593 -14.485189 -32.344700
RightLeg 21.886037 -0.000000 -0.000000
RightFoot -9.333593 -12.207079 -8.867300
RightToeBase -1.578187 -0.000000 0.000000
